<?xml version="1.0" standalone="no"?>
<!DOCTYPE svg PUBLIC "-//W3C//DTD SVG 20010904//EN"
 "http://www.w3.org/TR/2001/REC-SVG-20010904/DTD/svg10.dtd">
<svg version="1.0" xmlns="http://www.w3.org/2000/svg"
 width="1024.000000pt" height="1024.000000pt" viewBox="0 0 1024.000000 1024.000000"
 preserveAspectRatio="xMidYMid meet">

<g transform="translate(0.000000,1024.000000) scale(0.100000,-0.100000)"
fill="#00a3e4" stroke="none">
<path d="M5098 8013 c-38 -2 -68 -7 -68 -10 0 -3 16 -34 35 -68 116 -208 175
-464 175 -765 0 -326 -76 -632 -231 -935 -144 -281 -315 -503 -674 -875 -417
-433 -523 -567 -659 -838 -76 -152 -129 -317 -156 -486 -38 -238 -17 -573 45
-720 9 -21 14 -40 12 -42 -2 -3 -42 35 -88 84 -122 129 -190 253 -241 440 -29
107 -32 377 -4 502 38 177 113 355 218 524 104 166 223 308 508 606 363 379
434 463 552 645 163 254 253 473 310 758 30 148 32 453 5 591 -39 194 -123
419 -185 496 l-20 24 -118 -34 c-710 -203 -1329 -698 -1696 -1355 -193 -345
-308 -691 -370 -1113 -21 -141 -18 -640 5 -777 70 -420 193 -751 411 -1103
158 -255 394 -519 636 -712 257 -206 682 -426 992 -516 273 -78 520 -114 787
-114 371 0 739 76 1096 227 232 97 392 191 610 357 112 85 373 332 362 342 -3
3 -31 -6 -63 -19 -164 -69 -335 -110 -729 -177 -515 -87 -802 -174 -1015 -308
l-75 -48 -173 4 -172 3 32 46 c86 119 254 245 459 342 192 92 413 157 809 241
608 128 738 162 929 240 133 55 297 148 346 196 42 41 204 368 250 503 19 57
34 105 32 107 -2 2 -43 -29 -92 -68 -356 -287 -596 -382 -1525 -608 -412 -100
-727 -212 -946 -336 -160 -90 -246 -155 -374 -284 -101 -101 -137 -145 -188
-231 l-63 -106 -62 17 c-62 17 -62 17 -75 66 -22 81 -10 317 22 436 63 238
184 436 403 661 252 259 477 408 1094 725 686 352 1033 623 1293 1011 131 196
235 452 276 682 30 172 31 170 -33 294 -142 278 -361 566 -587 773 -184 169
-443 361 -426 316 22 -56 55 -190 67 -269 9 -56 14 -172 14 -305 -1 -179 -4
-236 -23 -340 -71 -392 -215 -716 -467 -1049 -192 -253 -367 -424 -779 -761
-393 -321 -618 -530 -757 -703 -251 -312 -384 -601 -420 -917 -12 -111 -7
-336 11 -424 6 -27 8 -51 6 -54 -3 -2 -30 21 -61 52 -64 64 -123 178 -152 292
-25 100 -25 377 0 494 58 269 201 540 423 800 144 168 297 318 579 564 458
399 693 647 880 928 180 269 312 599 361 903 19 121 22 385 5 505 -26 184 -83
352 -154 458 -48 72 -74 85 -263 132 -291 73 -560 98 -866 83z m-634 -888 c1
-221 -3 -255 -51 -415 -49 -164 -161 -397 -242 -500 -19 -24 -20 -24 -55 -8
-78 38 -223 135 -324 217 -111 91 -304 286 -334 339 l-18 30 116 121 c64 67
150 149 192 183 174 140 443 296 608 352 l69 23 19 -66 c15 -54 19 -103 20
-276z m-1247 -712 c126 -169 415 -419 603 -522 l50 -27 -135 -145 c-74 -79
-174 -192 -222 -251 -49 -59 -93 -107 -99 -107 -22 -2 -193 121 -289 207 -123
109 -218 218 -210 241 2 9 14 52 26 96 23 91 69 211 127 337 44 94 107 198
120 198 5 0 17 -12 29 -27z m-237 -1264 c36 -30 89 -70 117 -89 29 -19 53 -39
53 -43 0 -5 -19 -40 -41 -79 -79 -134 -187 -412 -205 -527 -4 -23 -10 -41 -14
-41 -3 0 -16 42 -28 93 -60 266 -84 547 -65 771 l6 77 56 -54 c31 -30 85 -78
121 -108z"/>
<path d="M8016 5689 c-9 -47 -85 -201 -149 -304 -105 -170 -288 -374 -457
-511 -209 -170 -526 -357 -855 -504 -635 -284 -855 -400 -1083 -569 -126 -94
-339 -309 -401 -406 -28 -44 -51 -84 -51 -88 0 -5 22 11 48 35 67 59 276 182
473 277 187 90 421 179 724 276 868 275 1063 356 1345 556 182 128 326 272
437 435 l56 82 -6 229 c-5 214 -18 338 -47 458 -16 64 -26 74 -34 34z"/>
</g>
</svg>
